<svg version="1.1" xmlns="http://www.w3.org/2000/svg" xmlns:xlink="http://www.w3.org/1999/xlink" width="700" height="300"><defs><clipPath id="FKOAcLeyJqmw"><path fill="none" stroke="none" d="M 26.5 5.5 L 670.5 5.5 L 670.5 274.5 L 26.5 274.5 L 26.5 5.5"/></clipPath><clipPath id="uGoIzTASRDMT"><path fill="none" stroke="none" d="M 26.5 5.5 L 670.5 5.5 L 670.5 274.5 L 26.5 274.5 L 26.5 5.5"/></clipPath><clipPath id="XtpJxcwMgsne"><path fill="none" stroke="none" d="M 26.5 5.5 L 670.5 5.5 L 670.5 274.5 L 26.5 274.5 L 26.5 5.5"/></clipPath><clipPath id="mQUfTVaTcOWa"><path fill="none" stroke="none" d="M 26.5 5.5 L 670.5 5.5 L 670.5 274.5 L 26.5 274.5 L 26.5 5.5"/></clipPath></defs><path fill="rgb(255,255,255)" stroke="none" paint-order="stroke" d="M 0.5 0.5 L 700.5 0.5 L 700.5 300.5 L 0.5 300.5 L 0.5 0.5" fill-opacity="1"/><rect fill="#FFFFFF" stroke="none" x="26" y="5" width="644" height="269" transform="matrix(1, 0, 0, 1, 0.5, 0.5)"/><path fill="rgb(255,255,255)" stroke="none" paint-order="stroke" d="M 26.5 5.5 L 670.5 5.5 L 670.5 274.5 L 26.5 274.5 L 26.5 5.5" fill-opacity="1"/><path fill="none" stroke="rgb(229,229,229)" paint-order="fill" d="M 26.5 5.5 L 670.5 5.5 L 670.5 274.5 L 26.5 274.5 L 26.5 5.5" stroke-opacity="1" stroke-linejoin="bevel" stroke-miterlimit="10" stroke-dasharray=""/><path fill="none" stroke="rgb(229,229,229)" paint-order="fill" d="M 95.5 274.5 L 95.5 5.5 M 256.5 274.5 L 256.5 5.5 M 415.5 274.5 L 415.5 5.5 M 573.5 274.5 L 573.5 5.5" stroke-opacity="1" stroke-linejoin="bevel" stroke-miterlimit="10" stroke-dasharray="" clip-path="url(#FKOAcLeyJqmw)"/><path fill="none" stroke="rgb(229,229,229)" paint-order="fill" d="M 26.5 267.5 L 670.5 267.5 M 26.5 211.5 L 670.5 211.5 M 26.5 155.5 L 670.5 155.5 M 26.5 99.5 L 670.5 99.5 M 26.5 43.5 L 670.5 43.5" stroke-opacity="1" stroke-linejoin="bevel" stroke-miterlimit="10" stroke-dasharray="" clip-path="url(#uGoIzTASRDMT)"/><path fill="none" stroke="none"/><path fill="none" stroke="rgb(0,0,128)" paint-order="fill" d="M 641.227294921875 236.97491455078125 L 639.9175415039062 200.4336395263672 L 638.6077880859375 180.757568359375 L 637.2980346679688 194.81190490722656 L 635.98828125 236.97491455078125 L 634.6785888671875 245.4075164794922 L 633.3688354492188 256.6510009765625 L 632.05908203125 222.9205780029297 L 630.7493286132812 200.4336395263672 L 629.4395751953125 214.48797607421875 L 628.1298828125 234.16404724121094 L 626.8201293945312 231.35317993164062 L 625.5103759765625 172.32496643066406 L 624.2006225585938 203.2445068359375 L 622.890869140625 203.2445068359375 L 621.5811767578125 220.10971069335938 L 620.2714233398438 172.32496643066406 L 618.961669921875 203.2445068359375 L 617.6519165039062 234.16404724121094 L 616.3421630859375 220.10971069335938 L 615.0324096679688 186.37930297851562 L 613.7227172851562 206.0553741455078 L 612.4129638671875 217.29884338378906 L 611.1032104492188 231.35317993164062 L 609.79345703125 236.97491455078125 L 608.4837036132812 208.86624145507812 L 607.1740112304688 217.29884338378906 L 605.8642578125 225.7314453125 L 604.5545043945312 194.81190490722656 L 603.2447509765625 175.13583374023438 L 601.9349975585938 208.86624145507812 L 600.6253051757812 225.7314453125 L 599.3155517578125 248.2183837890625 L 598.0057983398438 234.16404724121094 L 596.696044921875 217.29884338378906 L 595.3862915039062 228.5423126220703 L 594.0765991210938 253.84011840820312 L 592.766845703125 256.6510009765625 L 591.4570922851562 175.13583374023438 L 590.1473388671875 180.757568359375 L 588.8375854492188 200.4336395263672 L 587.52783203125 239.78578186035156 L 586.2181396484375 242.59664916992188 L 584.9083862304688 242.59664916992188 L 583.5986328125 236.97491455078125 L 582.2888793945312 37.403343200683594 L 580.9791259765625 59.890281677246094 L 579.66943359375 220.10971069335938 L 578.3596801757812 236.97491455078125 L 577.0499267578125 222.9205780029297 L 575.7401733398438 217.29884338378906 L 574.430419921875 248.2183837890625 L 573.1207275390625 231.35317993164062 L 571.8109741210938 220.10971069335938 L 570.501220703125 208.86624145507812 L 569.1914672851562 200.4336395263672 L 567.8817138671875 228.5423126220703 L 566.572021484375 231.35317993164062 L 565.2622680664062 234.16404724121094 L 563.9525146484375 236.97491455078125 L 562.6427612304688 211.67710876464844 L 561.3330078125 163.89236450195312 L 560.0233154296875 163.89236450195312 L 558.7135620117188 172.32496643066406 L 557.40380859375 206.0553741455078 L 556.0940551757812 231.35317993164062 L 554.7843017578125 222.9205780029297 L 553.4745483398438 214.48797607421875 L 552.1648559570312 203.2445068359375 L 550.8551025390625 228.5423126220703 L 549.5453491210938 245.4075164794922 L 548.235595703125 211.67710876464844 L 546.9258422851562 200.4336395263672 L 545.6161499023438 217.29884338378906 L 544.306396484375 222.9205780029297 L 542.9966430664062 225.7314453125 L 541.6868896484375 177.9467010498047 L 540.3771362304688 206.0553741455078 L 539.0674438476562 239.78578186035156 L 537.7576904296875 253.84011840820312 L 536.4479370117188 231.35317993164062 L 535.13818359375 231.35317993164062 L 533.8284301757812 231.35317993164062 L 532.5187377929688 220.10971069335938 L 531.208984375 192.00103759765625 L 529.8992309570312 127.3510971069336 L 528.5894775390625 228.5423126220703 L 527.2797241210938 172.32496643066406 L 525.9700317382812 76.75548553466797 L 524.6602783203125 177.9467010498047 L 523.3505249023438 194.81190490722656 L 522.040771484375 183.5684356689453 L 520.7310180664062 222.9205780029297 L 519.4212646484375 177.9467010498047 L 518.111572265625 231.35317993164062 L 516.8018188476562 192.00103759765625 L 515.4920654296875 155.4597625732422 L 514.1823120117188 217.29884338378906 L 512.87255859375 222.9205780029297 L 511.5628356933594 96.43155670166016 L 510.25311279296875 102.05329132080078 L 508.943359375 166.70323181152344 L 507.63360595703125 132.97283935546875 L 506.3238830566406 17.727272033691406 L 505.0141296386719 82.3772201538086 L 503.70440673828125 183.5684356689453 L 502.3946533203125 194.81190490722656 L 501.08489990234375 228.5423126220703 L 499.7751770019531 217.29884338378906 L 498.4654235839844 203.2445068359375 L 497.1556701660156 192.00103759765625 L 495.845947265625 203.2445068359375 L 494.53619384765625 251.0292510986328 L 493.2264709472656 239.78578186035156 L 491.9167175292969 231.35317993164062 L 490.6069641113281 242.59664916992188 L 489.2972412109375 208.86624145507812 L 487.98748779296875 180.757568359375 L 486.6777648925781 208.86624145507812 L 485.3680114746094 228.5423126220703 L 484.0582580566406 192.00103759765625 L 482.74853515625 144.21629333496094 L 481.43878173828125 161.0814971923828 L 480.1290283203125 203.2445068359375 L 478.8193054199219 228.5423126220703 L 477.5095520019531 236.97491455078125 L 476.1998291015625 234.16404724121094 L 474.89007568359375 166.70323181152344 L 473.580322265625 71.13375091552734 L 472.2705993652344 71.13375091552734 L 470.9608459472656 85.1880874633789 L 469.651123046875 127.3510971069336 L 468.34136962890625 203.2445068359375 L 467.0316162109375 228.5423126220703 L 465.7218933105469 222.9205780029297 L 464.4121398925781 116.10762786865234 L 463.1023864746094 149.83802795410156 L 461.79266357421875 225.7314453125 L 460.48291015625 225.7314453125 L 459.1731872558594 214.48797607421875 L 457.8634338378906 220.10971069335938 L 456.5536804199219 163.89236450195312 L 455.24395751953125 192.00103759765625 L 453.9342041015625 203.2445068359375 L 452.6244812011719 242.59664916992188 L 451.3147277832031 222.9205780029297 L 450.0049743652344 217.29884338378906 L 448.69525146484375 189.19017028808594 L 447.385498046875 222.9205780029297 L 446.07574462890625 242.59664916992188 L 444.7660217285156 245.4075164794922 L 443.4562683105469 180.757568359375 L 442.14654541015625 183.5684356689453 L 440.8367919921875 197.62277221679688 L 439.52703857421875 225.7314453125 L 438.2173156738281 220.10971069335938 L 436.9075622558594 231.35317993164062 L 435.5978088378906 169.51409912109375 L 434.2880859375 172.32496643066406 L 432.97833251953125 186.37930297851562 L 431.6686096191406 141.40542602539062 L 430.3588562011719 135.78370666503906 L 429.0491027832031 177.9467010498047 L 427.7393798828125 206.0553741455078 L 426.42962646484375 225.7314453125 L 425.1199035644531 239.78578186035156 L 423.8101501464844 236.97491455078125 L 422.5003967285156 231.35317993164062 L 421.190673828125 225.7314453125 L 419.88092041015625 206.0553741455078 L 418.5711669921875 228.5423126220703 L 417.2614440917969 236.97491455078125 L 415.9516906738281 222.9205780029297 L 414.6419677734375 234.16404724121094 L 413.33221435546875 231.35317993164062 L 412.0224609375 138.59457397460938 L 410.7127380371094 147.02716064453125 L 409.4029846191406 152.64889526367188 L 408.09326171875 177.9467010498047 L 406.78350830078125 225.7314453125 L 405.4737548828125 163.89236450195312 L 404.1640319824219 124.54022979736328 L 402.8542785644531 163.89236450195312 L 401.5445251464844 189.19017028808594 L 400.23480224609375 225.7314453125 L 398.925048828125 234.16404724121094 L 397.6153259277344 206.0553741455078 L 396.3055725097656 220.10971069335938 L 394.9958190917969 234.16404724121094 L 393.68609619140625 242.59664916992188 L 392.3763427734375 239.78578186035156 L 391.0666198730469 203.2445068359375 L 389.7568664550781 172.32496643066406 L 388.4471130371094 57.07941436767578 L 387.13739013671875 141.40542602539062 L 385.82763671875 203.2445068359375 L 384.51788330078125 231.35317993164062 L 383.2081604003906 161.0814971923828 L 381.8984069824219 177.9467010498047 L 380.58868408203125 206.0553741455078 L 379.2789306640625 217.29884338378906 L 377.96917724609375 225.7314453125 L 376.6594543457031 217.29884338378906 L 375.3497009277344 217.29884338378906 L 374.03997802734375 220.10971069335938 L 372.730224609375 228.5423126220703 L 371.42047119140625 231.35317993164062 L 370.1107482910156 192.00103759765625 L 368.8009948730469 161.0814971923828 L 367.4912414550781 200.4336395263672 L 366.1815185546875 225.7314453125 L 364.87176513671875 225.7314453125 L 363.5620422363281 217.29884338378906 L 362.2522888183594 217.29884338378906 L 360.9425354003906 231.35317993164062 L 359.6328125 242.59664916992188 L 358.32305908203125 192.00103759765625 L 357.0133361816406 152.64889526367188 L 355.7035827636719 138.59457397460938 L 354.3938293457031 121.72936248779297 L 353.0841064453125 138.59457397460938 L 351.77435302734375 130.16197204589844 L 350.464599609375 158.2706298828125 L 349.1548767089844 208.86624145507812 L 347.8451232910156 236.97491455078125 L 346.535400390625 245.4075164794922 L 345.22564697265625 225.7314453125 L 343.9158935546875 155.4597625732422 L 342.6061706542969 194.81190490722656 L 341.2964172363281 220.10971069335938 L 339.9866638183594 239.78578186035156 L 338.67694091796875 245.4075164794922 L 337.3671875 220.10971069335938 L 336.0574645996094 192.00103759765625 L 334.7477111816406 228.5423126220703 L 333.4379577636719 211.67710876464844 L 332.12823486328125 225.7314453125 L 330.8184814453125 197.62277221679688 L 329.5087585449219 130.16197204589844 L 328.1990051269531 189.19017028808594 L 326.8892517089844 225.7314453125 L 325.57952880859375 239.78578186035156 L 324.269775390625 242.59664916992188 L 322.96002197265625 189.19017028808594 L 321.6502990722656 194.81190490722656 L 320.3405456542969 166.70323181152344 L 319.03082275390625 175.13583374023438 L 317.7210693359375 225.7314453125 L 316.41131591796875 220.10971069335938 L 315.1015930175781 220.10971069335938 L 313.7918395996094 236.97491455078125 L 312.48211669921875 234.16404724121094 L 311.17236328125 236.97491455078125 L 309.86260986328125 217.29884338378906 L 308.5528869628906 234.16404724121094 L 307.2431335449219 242.59664916992188 L 305.9333801269531 248.2183837890625 L 304.6236572265625 251.0292510986328 L 303.31390380859375 239.78578186035156 L 302.0041809082031 239.78578186035156 L 300.6944274902344 245.4075164794922 L 299.3846740722656 231.35317993164062 L 298.074951171875 211.67710876464844 L 296.76519775390625 225.7314453125 L 295.4554748535156 236.97491455078125 L 294.1457214355469 217.29884338378906 L 292.8359680175781 220.10971069335938 L 291.5262451171875 234.16404724121094 L 290.21649169921875 248.2183837890625 L 288.90673828125 251.0292510986328 L 287.5970153808594 253.84011840820312 L 286.2872619628906 259.46185302734375 L 284.9775390625 259.46185302734375 L 283.66778564453125 248.2183837890625 L 282.3580322265625 231.35317993164062 L 281.0483093261719 239.78578186035156 L 279.7385559082031 245.4075164794922 L 278.4288330078125 245.4075164794922 L 277.11907958984375 242.59664916992188 L 275.809326171875 222.9205780029297 L 274.4996032714844 203.2445068359375 L 273.1898498535156 231.35317993164062 L 271.8800964355469 259.46185302734375 L 270.57037353515625 251.0292510986328 L 269.2606201171875 222.9205780029297 L 267.9508972167969 217.29884338378906 L 266.6411437988281 217.29884338378906 L 265.3313903808594 234.16404724121094 L 264.02166748046875 259.46185302734375 L 262.7119140625 228.5423126220703 L 261.4021911621094 214.48797607421875 L 260.0924377441406 236.97491455078125 L 258.7826843261719 251.0292510986328 L 257.47296142578125 248.2183837890625 L 256.1632080078125 245.4075164794922 L 254.8534698486328 259.46185302734375 L 253.54373168945312 242.59664916992188 L 252.23397827148438 239.78578186035156 L 250.9242401123047 225.7314453125 L 249.614501953125 234.16404724121094 L 248.3047637939453 222.9205780029297 L 246.99501037597656 200.4336395263672 L 245.68527221679688 222.9205780029297 L 244.3755340576172 245.4075164794922 L 243.0657958984375 239.78578186035156 L 241.7560577392578 211.67710876464844 L 240.44630432128906 192.00103759765625 L 239.13656616210938 183.5684356689453 L 237.8268280029297 200.4336395263672 L 236.51708984375 220.10971069335938 L 235.20733642578125 228.5423126220703 L 233.89759826660156 192.00103759765625 L 232.58786010742188 214.48797607421875 L 231.2781219482422 231.35317993164062 L 229.96836853027344 231.35317993164062 L 228.65863037109375 251.0292510986328 L 227.34889221191406 251.0292510986328 L 226.03915405273438 253.84011840820312 L 224.72940063476562 248.2183837890625 L 223.41966247558594 220.10971069335938 L 222.10992431640625 245.4075164794922 L 220.80018615722656 203.2445068359375 L 219.49044799804688 194.81190490722656 L 218.18069458007812 242.59664916992188 L 216.87095642089844 251.0292510986328 L 215.56121826171875 245.4075164794922 L 214.25148010253906 222.9205780029297 L 212.9417266845703 231.35317993164062 L 211.63198852539062 251.0292510986328 L 210.32225036621094 251.0292510986328 L 209.01251220703125 245.4075164794922 L 207.7027587890625 253.84011840820312 L 206.3930206298828 262.2727355957031 L 205.08328247070312 262.2727355957031 L 203.77354431152344 239.78578186035156 L 202.46380615234375 222.9205780029297 L 201.154052734375 214.48797607421875 L 199.8443145751953 236.97491455078125 L 198.53457641601562 228.5423126220703 L 197.22483825683594 189.19017028808594 L 195.9150848388672 206.0553741455078 L 194.6053466796875 222.9205780029297 L 193.2956085205078 253.84011840820312 L 191.98587036132812 262.2727355957031 L 190.67611694335938 256.6510009765625 L 189.3663787841797 245.4075164794922 L 188.056640625 256.6510009765625 L 186.7469024658203 239.78578186035156 L 185.43716430664062 194.81190490722656 L 184.12741088867188 211.67710876464844 L 182.8176727294922 236.97491455078125 L 181.5079345703125 220.10971069335938 L 180.1981964111328 206.0553741455078 L 178.88844299316406 225.7314453125 L 177.57870483398438 197.62277221679688 L 176.2689666748047 163.89236450195312 L 174.959228515625 234.16404724121094 L 173.64947509765625 256.6510009765625 L 172.33973693847656 197.62277221679688 L 171.02999877929688 214.48797607421875 L 169.7202606201172 222.9205780029297 L 168.41050720214844 228.5423126220703 L 167.10076904296875 245.4075164794922 L 165.79103088378906 214.48797607421875 L 164.48129272460938 200.4336395263672 L 163.1715545654297 206.0553741455078 L 161.86180114746094 206.0553741455078 L 160.55206298828125 200.4336395263672 L 159.24232482910156 225.7314453125 L 157.93258666992188 208.86624145507812 L 156.62283325195312 177.9467010498047 L 155.31309509277344 163.89236450195312 L 154.00335693359375 231.35317993164062 L 152.69361877441406 208.86624145507812 L 151.3838653564453 197.62277221679688 L 150.07412719726562 208.86624145507812 L 148.76438903808594 222.9205780029297 L 147.45465087890625 203.2445068359375 L 146.14491271972656 203.2445068359375 L 144.8351593017578 206.0553741455078 L 143.52542114257812 192.00103759765625 L 142.21568298339844 177.9467010498047 L 140.90594482421875 203.2445068359375 L 139.59619140625 200.4336395263672 L 138.2864532470703 203.2445068359375 L 136.97671508789062 231.35317993164062 L 135.66697692871094 242.59664916992188 L 134.3572235107422 186.37930297851562 L 133.0474853515625 194.81190490722656 L 131.7377471923828 208.86624145507812 L 130.42800903320312 217.29884338378906 L 129.11825561523438 231.35317993164062 L 127.80852508544922 197.62277221679688 L 126.498779296875 194.81190490722656 L 125.18904113769531 220.10971069335938 L 123.8792953491211 177.9467010498047 L 122.5695571899414 189.19017028808594 L 121.25981140136719 236.97491455078125 L 119.9500732421875 259.46185302734375 L 118.64032745361328 248.2183837890625 L 117.3305892944336 194.81190490722656 L 116.02084350585938 189.19017028808594 L 114.71110534667969 225.7314453125 L 113.40135955810547 236.97491455078125 L 112.09162139892578 231.35317993164062 L 110.78187561035156 239.78578186035156 L 109.47213745117188 225.7314453125 L 108.16239929199219 189.19017028808594 L 106.85265350341797 208.86624145507812 L 105.54291534423828 245.4075164794922 L 104.23316955566406 234.16404724121094 L 102.92343139648438 234.16404724121094 L 101.61368560791016 222.9205780029297 L 100.30394744873047 214.48797607421875 L 98.99420166015625 220.10971069335938 L 97.68446350097656 217.29884338378906 L 96.37471771240234 186.37930297851562 L 95.06497955322266 180.757568359375 L 93.75523376464844 214.48797607421875 L 92.44549560546875 197.62277221679688 L 91.13574981689453 214.48797607421875 L 89.82601165771484 222.9205780029297 L 88.51627349853516 228.5423126220703 L 87.20652770996094 203.2445068359375 L 85.89678955078125 231.35317993164062 L 84.58704376220703 234.16404724121094 L 83.27730560302734 239.78578186035156 L 81.96755981445312 242.59664916992188 L 80.65782165527344 245.4075164794922 L 79.34807586669922 222.9205780029297 L 78.03833770751953 231.35317993164062 L 76.72859191894531 208.86624145507812 L 75.41885375976562 183.5684356689453 L 74.1091079711914 166.70323181152344 L 72.79936981201172 189.19017028808594 L 71.4896240234375 236.97491455078125 L 70.17988586425781 214.48797607421875 L 68.87014770507812 206.0553741455078 L 67.5604019165039 197.62277221679688 L 66.25066375732422 200.4336395263672 L 64.94091796875 217.29884338378906 L 63.63117599487305 194.81190490722656 L 62.321434020996094 208.86624145507812 L 61.011695861816406 206.0553741455078 L 59.70195388793945 192.00103759765625 L 58.3922119140625 177.9467010498047 L 57.08246994018555 200.4336395263672 L 55.772727966308594 183.5684356689453" stroke-opacity="0.5019607843137255" stroke-linejoin="bevel" stroke-miterlimit="10" stroke-dasharray="" clip-path="url(#XtpJxcwMgsne)"/><path fill="none" stroke="rgb(0,0,0)" paint-order="fill" d="M 26.5 274.5 L 670.5 274.5" stroke-opacity="1" stroke-linejoin="bevel" stroke-miterlimit="10" stroke-dasharray=""/><path fill="none" stroke="rgb(0,0,0)" paint-order="fill" d="M 95.5 280.5 L 95.5 272.5 M 256.5 280.5 L 256.5 272.5 M 415.5 280.5 L 415.5 272.5 M 573.5 280.5 L 573.5 272.5" stroke-opacity="1" stroke-linejoin="bevel" stroke-miterlimit="10" stroke-dasharray=""/><path fill="none" stroke="rgb(0,0,0)" paint-order="fill" d="" stroke-opacity="1" stroke-linejoin="bevel" stroke-miterlimit="10" stroke-dasharray=""/><text fill="rgb(68,68,68)" stroke="none" font-family="helvetica" font-size="11px" font-style="normal" font-weight="normal" text-decoration="normal" x="77.74271392822266" y="295" text-anchor="start" dominant-baseline="alphabetic" transform="matrix(1, 0, 0, 1, 0.5, 0.5)" fill-opacity="1">5/2020</text><text fill="rgb(68,68,68)" stroke="none" font-family="helvetica" font-size="11px" font-style="normal" font-weight="normal" text-decoration="normal" x="238.8409423828125" y="295" text-anchor="start" dominant-baseline="alphabetic" transform="matrix(1, 0, 0, 1, 0.5, 0.5)" fill-opacity="1">9/2020</text><text fill="rgb(68,68,68)" stroke="none" font-family="helvetica" font-size="11px" font-style="normal" font-weight="normal" text-decoration="normal" x="398.6294250488281" y="295" text-anchor="start" dominant-baseline="alphabetic" transform="matrix(1, 0, 0, 1, 0.5, 0.5)" fill-opacity="1">1/2021</text><text fill="rgb(68,68,68)" stroke="none" font-family="helvetica" font-size="11px" font-style="normal" font-weight="normal" text-decoration="normal" x="555.7984619140625" y="295" text-anchor="start" dominant-baseline="alphabetic" transform="matrix(1, 0, 0, 1, 0.5, 0.5)" fill-opacity="1">5/2021</text><path fill="none" stroke="rgb(0,0,0)" paint-order="fill" d="M 26.5 274.5 L 26.5 5.5" stroke-opacity="1" stroke-linejoin="bevel" stroke-miterlimit="10" stroke-dasharray=""/><path fill="none" stroke="rgb(0,0,0)" paint-order="fill" d="M 20.5 267.5 L 28.5 267.5 M 20.5 211.5 L 28.5 211.5 M 20.5 155.5 L 28.5 155.5 M 20.5 99.5 L 28.5 99.5 M 20.5 43.5 L 28.5 43.5" stroke-opacity="1" stroke-linejoin="bevel" stroke-miterlimit="10" stroke-dasharray=""/><path fill="none" stroke="rgb(0,0,0)" paint-order="fill" d="M 22.5 267.5 L 26.5 267.5 M 22.5 256.5 L 26.5 256.5 M 22.5 245.5 L 26.5 245.5 M 22.5 234.5 L 26.5 234.5 M 22.5 222.5 L 26.5 222.5 M 22.5 211.5 L 26.5 211.5 M 22.5 200.5 L 26.5 200.5 M 22.5 189.5 L 26.5 189.5 M 22.5 177.5 L 26.5 177.5 M 22.5 166.5 L 26.5 166.5 M 22.5 155.5 L 26.5 155.5 M 22.5 144.5 L 26.5 144.5 M 22.5 132.5 L 26.5 132.5 M 22.5 121.5 L 26.5 121.5 M 22.5 110.5 L 26.5 110.5 M 22.5 99.5 L 26.5 99.5 M 22.5 87.5 L 26.5 87.5 M 22.5 76.5 L 26.5 76.5 M 22.5 65.5 L 26.5 65.5 M 22.5 54.5 L 26.5 54.5 M 22.5 43.5 L 26.5 43.5 M 22.5 31.5 L 26.5 31.5 M 22.5 20.5 L 26.5 20.5 M 22.5 9.5 L 26.5 9.5" stroke-opacity="1" stroke-linejoin="bevel" stroke-miterlimit="10" stroke-dasharray=""/><text fill="rgb(68,68,68)" stroke="none" font-family="helvetica" font-size="11px" font-style="normal" font-weight="normal" text-decoration="normal" x="8.88232421875" y="271.39447021484375" text-anchor="start" dominant-baseline="alphabetic" transform="matrix(1, 0, 0, 1, 0.5, 0.5)" fill-opacity="1">0</text><text fill="rgb(68,68,68)" stroke="none" font-family="helvetica" font-size="11px" font-style="normal" font-weight="normal" text-decoration="normal" x="2.7646484375" y="215.17710876464844" text-anchor="start" dominant-baseline="alphabetic" transform="matrix(1, 0, 0, 1, 0.5, 0.5)" fill-opacity="1">20</text><text fill="rgb(68,68,68)" stroke="none" font-family="helvetica" font-size="11px" font-style="normal" font-weight="normal" text-decoration="normal" x="2.7646484375" y="158.9597625732422" text-anchor="start" dominant-baseline="alphabetic" transform="matrix(1, 0, 0, 1, 0.5, 0.5)" fill-opacity="1">40</text><text fill="rgb(68,68,68)" stroke="none" font-family="helvetica" font-size="11px" font-style="normal" font-weight="normal" text-decoration="normal" x="2.7646484375" y="102.74242401123047" text-anchor="start" dominant-baseline="alphabetic" transform="matrix(1, 0, 0, 1, 0.5, 0.5)" fill-opacity="1">60</text><text fill="rgb(68,68,68)" stroke="none" font-family="helvetica" font-size="11px" font-style="normal" font-weight="normal" text-decoration="normal" x="2.7646484375" y="46.52507781982422" text-anchor="start" dominant-baseline="alphabetic" transform="matrix(1, 0, 0, 1, 0.5, 0.5)" fill-opacity="1">80</text></svg>